:FULLY-SPECIFIED
:FORCE-ALL-JOINTS-BE-3DOF
:DEGREES
3160
root 0.956625 16.9241 -33.363 1086.05 5.17884 -3.83956
lfemur -18.72 -2.42477 -8.23137
ltibia 35.2683 0 0
lfoot -16.436 7.52241 0
ltoes -40.4392 0 0
rfemur -19.5595 -0.293134 18.5159
rtibia 39.2924 0 0
rfoot -12.275 -21.1839 0
rtoes -16.4102 0 0
lowerback 5.75866 1.53279 -0.489476
upperback -4.0423 2.14598 1.88213
thorax -7.56424 1.13733 1.98807
lowerneck -5.38721 -5.12694 -7.89224
upperneck 9.28379 -6.77097 5.96615
head 4.12632 -3.32943 2.73536
lclavicle -2.50003e-14 -3.87536e-15 0
lhumerus -33.295 -18.9722 95.0545
lradius 50.0095 0 0
lwrist -9.34329 0 0
lhand -33.8339 389.906 0
lfingers 7.12502 0 0
lthumb -7.41568 -660.359 0
rclavicle -8.06743e-15 -1.58234e-14 0
rhumerus -35.5541 14.4737 -81.4082
rradius 52.2376 0 0
rwrist 1.08268 0 0
rhand -28.8418 -393.97 0
rfingers 7.12502 0 0
rthumb -2.22928 296.153 0
3161
root 0.964197 16.9266 -33.3574 1086.06 5.10726 -3.87113
lfemur -18.6901 -2.42137 -8.23507
ltibia 35.2113 0 0
lfoot -16.4206 7.63965 0
ltoes -40.489 0 0
rfemur -19.4888 -0.252562 18.5189
rtibia 39.1777 0 0
rfoot -12.2553 -21.1454 0
rtoes -16.425 0 0
lowerback 5.70869 1.53203 -0.496752
upperback -4.04946 2.14444 1.88654
thorax -7.54327 1.13711 1.99809
lowerneck -5.40616 -5.11279 -7.91704
upperneck 9.33702 -6.75127 5.97568
head 4.14543 -3.31987 2.74266
lclavicle -2.1936e-14 -2.85844e-15 0
lhumerus -33.2506 -18.8024 94.986
lradius 49.6348 0 0
lwrist -9.57776 0 0
lhand -33.8359 389.954 0
lfingers 7.12502 0 0
lthumb -7.41102 -660.349 0
rclavicle -7.86649e-15 -1.61097e-14 0
rhumerus -35.5432 14.2657 -81.4047
rradius 51.5391 0 0
rwrist 1.19571 0 0
rhand -28.8259 -393.952 0
rfingers 7.12502 0 0
rthumb -2.14866 296.202 0
3162
root 0.970484 16.9294 -33.3526 1086.05 5.01551 -3.90957
lfemur -18.6498 -2.41678 -8.24005
ltibia 35.1522 0 0
lfoot -16.4058 7.75318 0
ltoes -40.5262 0 0
rfemur -19.4162 -0.210812 18.5219
rtibia 39.0577 0 0
rfoot -12.2331 -21.1018 0
rtoes -16.4386 0 0
lowerback 5.67843 1.52518 -0.505555
upperback -4.04297 2.13512 1.90092
thorax -7.51929 1.13332 2.02007
lowerneck -5.48157 -5.11066 -7.91935
upperneck 9.43194 -6.74278 5.94227
head 4.18525 -3.31622 2.73072
lclavicle -1.88885e-14 -1.8471e-15 0
lhumerus -33.1988 -18.604 94.9061
lradius 49.3541 0 0
lwrist -9.78686 0 0
lhand -33.838 390.003 0
lfingers 7.12502 0 0
lthumb -7.40365 -660.334 0
rclavicle -7.74111e-15 -1.62884e-14 0
rhumerus -35.5299 14.0145 -81.4005
rradius 50.8133 0 0
rwrist 1.28018 0 0
rhand -28.8204 -393.946 0
rfingers 7.12502 0 0
rthumb -2.07283 296.248 0
3163
root 0.976838 16.9318 -33.3486 1086.05 4.95361 -3.97401
lfemur -18.6 -2.4111 -8.2462
ltibia 35.0916 0 0
lfoot -16.3915 7.86176 0
ltoes -40.5495 0 0
rfemur -19.3424 -0.168471 18.525
rtibia 38.9342 0 0
rfoot -12.2085 -21.0537 0
rtoes -16.4509 0 0
lowerback 5.63591 1.54021 -0.480739
upperback -4.04176 2.15753 1.90516
thorax -7.49342 1.1431 2.00884
lowerneck -5.4761 -5.10736 -7.88618
upperneck 9.48197 -6.74014 5.90858
head 4.19711 -3.31557 2.715
lclavicle -1.58914e-14 -8.52503e-16 0
lhumerus -33.1404 -18.3805 94.816
lradius 49.1781 0 0
lwrist -9.96669 0 0
lhand -33.8401 390.051 0
lfingers 7.12502 0 0
lthumb -7.39388 -660.314 0
rclavicle -7.69786e-15 -1.635e-14 0
rhumerus -35.5148 13.7272 -81.3956
rradius 50.067 0 0
rwrist 1.33306 0 0
rhand -28.8082 -393.937 0
rfingers 7.12502 0 0
rthumb -2.00266 296.291 0
3164
root 0.982488 16.934 -33.3447 1086.03 4.86449 -4.03701
lfemur -18.5416 -2.40446 -8.25341
ltibia 35.0303 0 0
lfoot -16.3781 7.96416 0
ltoes -40.5576 0 0
rfemur -19.2687 -0.126131 18.5281
rtibia 38.8089 0 0
rfoot -12.182 -21.0017 0
rtoes -16.4616 0 0
lowerback 5.61533 1.56728 -0.466929
upperback -4.04674 2.19575 1.91473
thorax -7.48831 1.1615 2.0069
lowerneck -5.45113 -5.10275 -7.87113
upperneck 9.53739 -6.73657 5.88337
head 4.2082 -3.31503 2.70529
lclavicle -1.29785e-14 1.1418e-16 0
lhumerus -33.0762 -18.1351 94.7171
lradius 49.1171 0 0
lwrist -10.1134 0 0
lhand -33.8421 390.098 0
lfingers 7.12502 0 0
lthumb -7.38203 -660.29 0
rclavicle -7.73748e-15 -1.62928e-14 0
rhumerus -35.4982 13.4111 -81.3902
rradius 49.3071 0 0
rwrist 1.35136 0 0
rhand -28.7731 -393.911 0
rfingers 7.12502 0 0
rthumb -1.93902 296.33 0
3165
root 0.98914 16.9376 -33.3399 1086.02 4.80146 -4.03984
lfemur -18.4755 -2.39693 -8.26158
ltibia 34.969 0 0
lfoot -16.3657 8.05914 0
ltoes -40.5512 0 0
rfemur -19.1961 -0.0843805 18.5311
rtibia 38.6837 0 0
rfoot -12.1538 -20.9465 0
rtoes -16.4704 0 0
lowerback 5.58162 1.59847 -0.485035
upperback -4.04853 2.23384 1.88638
thorax -7.4717 1.18029 1.9834
lowerneck -5.47683 -5.09546 -7.79372
upperneck 9.60954 -6.72836 5.82295
head 4.2292 -3.31088 2.67371
lclavicle -1.01833e-14 1.04179e-15 0
lhumerus -33.0073 -17.8713 94.6107
lradius 49.0614 0 0
lwrist -10.2229 0 0
lhand -33.8441 390.143 0
lfingers 7.12502 0 0
lthumb -7.36843 -660.262 0
rclavicle -7.85274e-15 -1.61265e-14 0
rhumerus -35.4804 13.0733 -81.3845
rradius 48.5404 0 0
rwrist 1.36666 0 0
rhand -28.7174 -393.869 0
rfingers 7.12502 0 0
rthumb -1.88279 296.364 0
3166
root 0.99536 16.9401 -33.3352 1086.02 4.71379 -4.05197
lfemur -18.4027 -2.38864 -8.27058
ltibia 34.9084 0 0
lfoot -16.3544 8.14547 0
ltoes -40.5329 0 0
rfemur -19.1254 -0.0438086 18.5341
rtibia 38.5602 0 0
rfoot -12.1242 -20.8886 0
rtoes -16.477 0 0
lowerback 5.54675 1.61555 -0.502898
upperback -4.04854 2.25432 1.87702
thorax -7.45262 1.19096 1.98196
lowerneck -5.4805 -5.06918 -7.81748
upperneck 9.64549 -6.69637 5.86581
head 4.24071 -3.29384 2.69248
lclavicle -7.53953e-15 1.91915e-15 0
lhumerus -32.9344 -17.5924 94.4983
lradius 48.9009 0 0
lwrist -10.2916 0 0
lhand -33.8459 390.187 0
lfingers 7.12502 0 0
lthumb -7.3534 -660.231 0
rclavicle -8.03823e-15 -1.58588e-14 0
rhumerus -35.4618 12.7211 -81.3785
rradius 47.7737 0 0
rwrist 1.41055 0 0
rhand -28.6435 -393.814 0
rfingers 7.12502 0 0
rthumb -1.83482 296.393 0
3167
root 1.00086 16.941 -33.3309 1086.01 4.6237 -4.06754
lfemur -18.324 -2.37967 -8.28031
ltibia 34.8493 0 0
lfoot -16.3444 8.22191 0
ltoes -40.504 0 0
rfemur -19.0579 -0.00500493 18.5369
rtibia 38.4402 0 0
rfoot -12.0935 -20.8286 0
rtoes -16.4812 0 0
lowerback 5.47626 1.60704 -0.535015
upperback -4.04994 2.24071 1.89203
thorax -7.4146 1.18634 2.01918
lowerneck -5.39547 -5.05054 -7.86136
upperneck 9.68777 -6.67559 5.87262
head 4.23967 -3.28638 2.70475
lclavicle -5.08078e-15 2.73511e-15 0
lhumerus -32.8584 -17.3017 94.3812
lradius 48.6457 0 0
lwrist -10.3153 0 0
lhand -33.8477 390.229 0
lfingers 7.12502 0 0
lthumb -7.33724 -660.198 0
rclavicle -8.28856e-15 -1.54976e-14 0
rhumerus -35.4429 12.3616 -81.3724
rradius 47.0138 0 0
rwrist 1.48002 0 0
rhand -28.5535 -393.747 0
rfingers 7.12502 0 0
rthumb -1.796 296.417 0
3168
root 1.00632 16.945 -33.3264 1085.99 4.53362 -4.10831
lfemur -18.2403 -2.37014 -8.29065
ltibia 34.7923 0 0
lfoot -16.3358 8.28722 0
ltoes -40.4659 0 0
rfemur -18.9944 0.031441 18.5395
rtibia 38.3255 0 0
rfoot -12.0621 -20.7671 0
rtoes -16.4826 0 0
lowerback 5.50048 1.63239 -0.519456
upperback -4.03163 2.27557 1.88797
thorax -7.40973 1.20235 2.00152
lowerneck -5.56768 -5.04407 -7.86648
upperneck 9.82953 -6.65902 5.87122
head 4.31057 -3.27569 2.70102
lclavicle -2.8407e-15 3.47849e-15 0
lhumerus -32.7802 -17.0026 94.2606
lradius 48.3056 0 0
lwrist -10.3409 0 0
lhand -33.8494 390.268 0
lfingers 7.12502 0 0
lthumb -7.32028 -660.163 0
rclavicle -8.59831e-15 -1.50505e-14 0
rhumerus -35.424 12.0022 -81.3663
rradius 46.2675 0 0
rwrist 1.57207 0 0
rhand -28.4498 -393.67 0
rfingers 7.12502 0 0
rthumb -1.76719 296.434 0
3169
root 1.01259 16.9476 -33.322 1085.99 4.4431 -4.07932
lfemur -18.1525 -2.36014 -8.30149
ltibia 34.7383 0 0
lfoot -16.3289 8.34017 0
ltoes -40.4198 0 0
rfemur -18.9361 0.0649399 18.542
rtibia 38.2177 0 0
rfoot -12.0303 -20.7047 0
rtoes -16.4808 0 0
lowerback 5.49667 1.65743 -0.562342
upperback -4.0424 2.30388 1.86308
thorax -7.42094 1.21785 1.99601
lowerneck -5.5805 -5.06113 -7.85302
upperneck 9.88054 -6.68341 5.862
head 4.32922 -3.28752 2.69371
lclavicle -8.52957e-16 4.13815e-15 0
lhumerus -32.7008 -16.6985 94.138
lradius 47.8908 0 0
lwrist -10.4141 0 0
lhand -33.851 390.305 0
lfingers 7.12502 0 0
lthumb -7.30285 -660.127 0
rclavicle -8.9621e-15 -1.45256e-14 0
rhumerus -35.4054 11.65 -81.3603
rradius 45.5417 0 0
rwrist 1.68368 0 0
rhand -28.3346 -393.584 0
rfingers 7.12502 0 0
rthumb -1.74927 296.445 0
3170
root 1.01845 16.9504 -33.317 1085.99 4.33807 -4.09201
lfemur -18.0616 -2.34979 -8.31273
ltibia 34.6879 0 0
lfoot -16.3237 8.37952 0
ltoes -40.3671 0 0
rfemur -18.8839 0.0949022 18.5442
rtibia 38.1186 0 0
rfoot -11.9982 -20.642 0
rtoes -16.4756 0 0
lowerback 5.4673 1.69815 -0.560259
upperback -4.02867 2.35661 1.83871
thorax -7.39019 1.24273 1.96377
lowerneck -5.66258 -5.04787 -7.83284
upperneck 9.93729 -6.66522 5.87611
head 4.35871 -3.27576 2.69367
lclavicle 8.48823e-16 4.7029e-15 0
lhumerus -32.6208 -16.3927 94.0148
lradius 47.4111 0 0
lwrist -10.5297 0 0
lhand -33.8524 390.337 0
lfingers 7.12502 0 0
lthumb -7.28526 -660.091 0
rclavicle -9.37451e-15 -1.39304e-14 0
rhumerus -35.3876 11.3122 -81.3546
rradius 44.8432 0 0
rwrist 1.81184 0 0
rhand -28.2103 -393.492 0
rfingers 7.12502 0 0
rthumb -1.7431 296.449 0
3171
root 1.02365 16.9538 -33.3125 1085.99 4.24369 -4.09687
lfemur -17.9684 -2.33918 -8.32424
ltibia 34.6418 0 0
lfoot -16.3205 8.40404 0
ltoes -40.3091 0 0
rfemur -18.839 0.120739 18.546
rtibia 38.03 0 0
rfoot -11.9664 -20.5796 0
rtoes -16.4673 0 0
lowerback 5.43609 1.70464 -0.589096
upperback -4.03089 2.36286 1.84141
thorax -7.3761 1.24737 1.98285
lowerneck -5.71143 -5.03218 -7.83486
upperneck 10.0156 -6.64035 5.8502
head 4.38824 -3.26419 2.68596
lclavicle 2.23099e-15 5.16158e-15 0
lhumerus -32.5414 -16.0886 93.8922
lradius 46.8765 0 0
lwrist -10.6823 0 0
lhand -33.8536 390.366 0
lfingers 7.12502 0 0
lthumb -7.26783 -660.055 0
rclavicle -9.83014e-15 -1.32729e-14 0
rhumerus -35.371 10.9961 -81.3492
rradius 44.1789 0 0
rwrist 1.95354 0 0
rhand -28.0791 -393.394 0
rfingers 7.12502 0 0
rthumb -1.73143 296.451 0
